<svg width="150" height="150" viewBox="0 0 150 150" fill="none" xmlns="http://www.w3.org/2000/svg">
<rect width="150" height="150" transform="matrix(-1 0 0 1 150 0)" fill="#5C4DF7"/>
<path fill-rule="evenodd" clip-rule="evenodd" d="M73.4375 104.776C63.1628 98.8326 56.25 87.7236 56.25 75C56.25 62.2764 63.1628 51.1674 73.4375 45.2238C68.3814 42.299 62.5112 40.625 56.25 40.625C37.2652 40.625 21.875 56.0152 21.875 75C21.875 93.9848 37.2652 109.375 56.25 109.375C62.5112 109.375 68.3814 107.701 73.4375 104.776ZM73.4375 104.776C78.4936 107.701 84.3638 109.375 90.625 109.375C109.61 109.375 125 93.9848 125 75C125 56.0152 109.61 40.625 90.625 40.625C84.3638 40.625 78.4936 42.299 73.4375 45.2238C83.7122 51.1674 90.625 62.2764 90.625 75C90.625 87.7236 83.7122 98.8326 73.4375 104.776Z" fill="white"/>
</svg>
